# xmcd
#
# Track frame offsets: 
#        150
#        21882
#        48902
#        76200
#        97752
#        124465
#        152477
#        183455
#        204402
#
# Disc length: 3529 seconds
#
# Revision: 0
# Processed by: cddbd v1.4PL0 Copyright (c) Steve Scherf et al.
# Submitted via: ExactAudioCopy v0.95a4
#
DISCID=670dc709
DTITLE=Chris Wilson - Live at the Continental
DYEAR=1900
DGENRE=Blues
TTITLE0=You Will Surely Love Again
TTITLE1=Wolves
TTITLE2=Face In The Mirror
TTITLE3=The Changeling
TTITLE4=Rose Tattoo
TTITLE5=It Takes A Lot To Laugh, It Takes A Train To Cry
TTITLE6=The Sky Is Crying
TTITLE7=Landlocked
TTITLE8=Hymm
EXTD=
EXTT0=
EXTT1=
EXTT2=
EXTT3=
EXTT4=
EXTT5=
EXTT6=
EXTT7=
EXTT8=
PLAYORDER=
